<svg xmlns="http://www.w3.org/2000/svg" width="224.136" height="259.25"><path fill="none" stroke="#9A7D57" stroke-width="1.5" stroke-miterlimit="10" d="M59.649 23.735L-.405 58.472m0 0l61.352 35.511 59.834-34.631m61.557 104.892L60.946 93.982-.412 129.466m0 .001l61.358 35.514 120.965-70.015m-60.704 104.893L60.946 164.98-.406 200.467m.001.001l60.48 35.007M-.408 45.049L38.218 22.99-.408.938m-.003 115.07l38.629-22.059L-.403 71.913m-.003 115.129l38.624-22.056-38.621-22.035m-.008 115.132l38.629-22.099-38.621-22.035M40.591 82.201H58.03l41.521-23.713-41.577-23.72H40.591m0 118.431H58.03l41.521-23.713-41.578-23.721H40.591m0 118.432H58.03l41.521-23.713-41.578-23.721H40.591m61.332-59.103h17.439l41.521-23.711-41.578-23.723h-17.383m.001 118.471h17.439l41.521-23.711-41.578-23.723h-17.383m61.335 11.936h17.439l41.521-23.713-41.578-23.721h-17.383M-.406 31.404l14.737-8.418-14.739-8.41m.003 87.826l14.736-8.418-14.742-8.411m-.001 87.83l14.743-8.421-14.742-8.41m.008 87.824l14.734-8.416-14.742-8.411M20.038 70.305h34.934l20.693-11.818-20.723-11.825H20.038m0 94.641h34.934l20.693-11.818-20.723-11.825H20.038m0 94.641h34.934l20.693-11.818-20.723-11.824H20.038m61.332-82.893h34.934l20.693-11.82-20.723-11.822H81.37m0 94.679h34.934l20.693-11.82-20.723-11.822H81.37m61.334-11.858h34.934l20.693-11.818-20.723-11.824h-34.904M55.79 58.484H-.261m56.051 70.998H-.261M55.79 200.48H-.261M117.122 93.982H61.071m56.051 70.998H61.071m117.383-35.498h-56.051"></path></svg>